<?xml version="1.0" standalone="no"?><!-- Generator: Gravit.io --><svg xmlns="http://www.w3.org/2000/svg" xmlns:xlink="http://www.w3.org/1999/xlink" style="isolation:isolate" viewBox="0 0 357.649 107.861" width="357.649" height="107.861"><defs><clipPath id="_clipPath_DY7erXba3sJKCmEeRFOFKbU0HlM7PBev"><rect width="357.649" height="107.861"/></clipPath></defs><g clip-path="url(#_clipPath_DY7erXba3sJKCmEeRFOFKbU0HlM7PBev)"><g opacity="0.8"><path d=" M 357.649 68.697 L 357.649 0 L 0 0 L 0 68.621 C -0.026 68.636 -0.028 68.651 0 68.666 C 0 68.666 0 68.666 0 68.666 L 0 68.722 L 0.099 68.722 C 69.567 107.417 94.622 107.861 179.324 107.861 C 264.067 107.861 288.591 107.484 357.633 68.734 C 357.64 68.73 357.645 68.726 357.648 68.722 L 357.649 68.722 L 357.649 68.721 C 357.654 68.714 357.653 68.705 357.649 68.697 Z  M 188.148 44.606 L 188.148 10.525 L 169.5 10.525 L 169.5 44.606 L 135.419 44.606 L 135.419 63.255 L 169.5 63.255 L 169.5 97.336 L 188.148 97.336 L 188.148 63.255 L 222.23 63.255 L 222.23 44.606 L 188.148 44.606 Z " fill-rule="evenodd" fill="rgb(79,183,171)"/></g></g></svg>