<?xml version="1.0" standalone="no"?><!-- Generator: Gravit.io --><svg xmlns="http://www.w3.org/2000/svg" xmlns:xlink="http://www.w3.org/1999/xlink" style="isolation:isolate" viewBox="0 0 80 40" width="80" height="40"><defs><clipPath id="_clipPath_zV8v5wtZUemRDXJulRFMW9aqNrisiA6j"><rect width="80" height="40"/></clipPath></defs><g clip-path="url(#_clipPath_zV8v5wtZUemRDXJulRFMW9aqNrisiA6j)"><clipPath id="_clipPath_YFwpKChQ9RCpGN7wUpcVKDpxLmYV9kjY"><rect x="0" y="0" width="80" height="40" transform="matrix(1,0,0,1,0,0)" fill="rgb(255,255,255)"/></clipPath><g clip-path="url(#_clipPath_YFwpKChQ9RCpGN7wUpcVKDpxLmYV9kjY)"><g id="Group"><path d=" M 35.442 9.833 L 30.701 9.833 L 30.701 12.369 L 49.299 12.369 L 49.299 9.833 L 44.307 9.833 L 43.22 8.746 L 36.417 8.746 L 35.442 9.833 L 35.442 9.833 Z  M 34.948 13.633 L 44.933 13.633 C 46.545 13.633 47.842 13.653 47.828 13.679 C 47.828 13.679 47.838 19.563 47.85 28.333 C 47.852 29.945 46.545 31.254 44.933 31.254 L 34.948 31.254 C 33.336 31.254 32.028 29.945 32.03 28.333 C 32.04 19.472 32.05 13.608 32.05 13.608 C 32.037 13.622 33.336 13.633 34.948 13.633 Z " fill="rgb(162,162,162)"/></g></g></g></svg>