<?xml version="1.0" standalone="no"?><!-- Generator: Gravit.io --><svg xmlns="http://www.w3.org/2000/svg" xmlns:xlink="http://www.w3.org/1999/xlink" style="isolation:isolate" viewBox="0 0 50 50" width="50" height="50"><defs><clipPath id="_clipPath_aZufGIHeBKTRTbdmS4L4AQBIRFBcqyof"><rect width="50" height="50"/></clipPath></defs><g clip-path="url(#_clipPath_aZufGIHeBKTRTbdmS4L4AQBIRFBcqyof)"><g id="Group"><g id="Group"><g id="Group"><path d=" M 40.625 15.625 L 40.625 18.75 L 46.875 18.75 L 46.875 46.875 L 18.75 46.875 L 18.75 40.625 L 15.625 40.625 L 15.625 50 L 50 50 L 50 15.625 L 40.625 15.625 Z " fill="rgb(65,185,170)"/><path d=" M 31.25 0 L 34.375 0 L 34.375 3.125 L 31.25 3.125 L 31.25 0 Z  M 6.25 0 L 9.375 0 L 9.375 3.125 L 6.25 3.125 L 6.25 0 Z  M 12.5 0 L 15.625 0 L 15.625 3.125 L 12.5 3.125 L 12.5 0 Z  M 6.25 31.25 L 9.375 31.25 L 9.375 34.375 L 6.25 34.375 L 6.25 31.25 Z  M 18.75 0 L 21.875 0 L 21.875 3.125 L 18.75 3.125 L 18.75 0 Z  M 25 0 L 28.125 0 L 28.125 3.125 L 25 3.125 L 25 0 Z  M 0 0 L 3.125 0 L 3.125 3.125 L 0 3.125 L 0 0 Z  M 0 18.75 L 3.125 18.75 L 3.125 21.875 L 0 21.875 L 0 18.75 Z  M 0 25 L 3.125 25 L 3.125 28.125 L 0 28.125 L 0 25 Z  M 0 12.5 L 3.125 12.5 L 3.125 15.625 L 0 15.625 L 0 12.5 Z  M 0 6.25 L 3.125 6.25 L 3.125 9.375 L 0 9.375 L 0 6.25 Z  M 31.25 6.25 L 34.375 6.25 L 34.375 9.375 L 31.25 9.375 L 31.25 6.25 Z  M 0 31.25 L 3.125 31.25 L 3.125 34.375 L 0 34.375 L 0 31.25 Z " fill-rule="evenodd" fill="rgb(65,185,170)"/><path d=" M 24.833 37.822 L 28.883 41.875 L 43.247 27.511 L 39.088 23.353 L 36.875 16.719 L 29.252 9.095 L 13.841 15.442 C 11.446 16.427 10.304 19.166 11.289 21.56 C 11.322 21.64 11.357 21.719 11.394 21.797 L 11.206 21.986 C 8.765 24.427 8.765 28.384 11.206 30.825 C 11.206 30.825 11.206 30.825 11.206 30.825 L 17.097 36.717 L 24.833 37.822 Z  M 12.5 26.406 C 12.498 25.577 12.827 24.781 13.416 24.197 L 18.941 29.722 L 21.15 27.511 L 14.52 20.881 C 13.91 20.271 13.91 19.282 14.52 18.672 C 14.665 18.526 14.839 18.41 15.03 18.331 L 28.516 12.78 L 34.141 18.405 L 36.35 25.034 L 38.822 27.505 L 28.877 37.45 L 26.298 34.872 L 18.566 33.767 L 13.409 28.611 C 12.824 28.027 12.497 27.233 12.5 26.406 Z " fill="rgb(65,185,170)"/></g></g></g></g></svg>