<?xml version="1.0" standalone="no"?><!-- Generator: Gravit.io --><svg xmlns="http://www.w3.org/2000/svg" xmlns:xlink="http://www.w3.org/1999/xlink" style="isolation:isolate" viewBox="0 0 80 40" width="80" height="40"><defs><clipPath id="_clipPath_juwawkPWGxVUzqYaq6tfNWfsUXly56Zq"><rect width="80" height="40"/></clipPath></defs><g clip-path="url(#_clipPath_juwawkPWGxVUzqYaq6tfNWfsUXly56Zq)"><clipPath id="_clipPath_JpZ9UE5tb5xgtUm889wZee0qxBbaiDzj"><rect x="0" y="0" width="80" height="40" transform="matrix(1,0,0,1,0,0)" fill="rgb(255,255,255)"/></clipPath><g clip-path="url(#_clipPath_JpZ9UE5tb5xgtUm889wZee0qxBbaiDzj)"><g id="Group"><path d=" M 48.807 9.148 L 51.39 11.847 C 51.917 12.397 51.896 13.269 51.343 13.793 C 50.09 14.982 48.979 16.065 48.979 16.065 C 48.981 16.063 48.554 15.615 48.028 15.065 L 45.445 12.367 C 44.918 11.816 44.492 11.372 44.493 11.375 C 44.493 11.375 45.624 10.312 46.862 9.112 C 47.409 8.582 48.281 8.598 48.807 9.148 Z  M 28.509 26.58 L 28.506 26.583 L 28.509 26.586 L 28.386 28.584 L 28.228 31.236 L 30.896 31.275 L 33.016 31.275 L 33.007 31.266 L 47.599 17.262 L 43.101 12.575 L 28.511 26.578 L 28.509 26.576 L 28.509 26.58 L 28.509 26.58 Z " fill="rgb(162,162,162)"/></g></g></g></svg>